<?xml version="1.0" encoding="utf-8"?>
<!-- Generator: Adobe Illustrator 16.0.1, SVG Export Plug-In . SVG Version: 6.00 Build 0)  -->
<!DOCTYPE svg PUBLIC "-//W3C//DTD SVG 1.1//EN" "http://www.w3.org/Graphics/SVG/1.1/DTD/svg11.dtd">
<svg version="1.1" id="Ebene_1" xmlns="http://www.w3.org/2000/svg" xmlns:xlink="http://www.w3.org/1999/xlink" x="0px" y="0px"
	 width="50px" height="50px" viewBox="0 0 50 50" enable-background="new 0 0 50 50" xml:space="preserve">
<g>
	<path fill="#C4B6A5" d="M27.022,49.501c0,0-0.162-1.379-0.565-1.865c-0.404-0.483-0.771-1.453-0.771-1.453s-2.008-0.202-3.922,0
		c-1.346,0.139-4.37,0.727-4.37,0.727l-0.485-0.836c0,0,1.995-0.547,3.577-0.917c1.075-0.253,3.421-0.189,3.421-0.189
		s-1.901-1.862-4.247-2.669c-2.345-0.81-3.62-1.05-4.671-0.973c-1.051,0.083-2.207,0.163-3.419,0.729
		c-1.215,0.566-3.478,1.539-3.478,1.539l-0.729-1.216c0,0,1.939-0.989,2.751-1.223c0.808-0.233,3.319-1.043,3.319-1.043
		s-0.975-0.483-2.106-0.807c-1.134-0.323-3.074-0.973-3.074-0.973l0.324-1.05c0,0,4.936,1.05,6.554,1.779s5.503,2.426,6.311,2.832
		c0.808,0.403,4.245,2.666,4.245,2.666s0.366-1.05-1.656-3.639c-2.024-2.589-5.259-8.819-6.229-10.759
		c-0.973-1.942-4.613-10.034-5.261-11.408c-0.646-1.376-3.237-7.117-3.641-7.684S7.605,9.047,7.04,8.319
		C6.721,7.911,4.693,5.73,4.693,5.73S9.062,16.735,9.71,18.108c0.646,1.374,2.424,5.581,3.072,7.28
		c0.651,1.702,3.318,6.476,4.046,7.606c0.729,1.133,3.075,4.694,3.56,5.338c0.485,0.649,1.539,2.266,1.539,2.266
		s-1.536-1.05-3.155-2.346s-2.022-1.962-3.844-2.511c-2.396-0.715-5.705-0.119-5.705-0.119s0.48-3.875-0.079-5.22
		c-0.522-1.251-1.617-2.912-2.59-3.639c-0.971-0.729-3.558-2.61-3.558-2.61s1.614-1.517,2.021-2.811
		c0.404-1.293,0.812-2.992,0.404-4.205c-0.404-1.216-1.816-2.103-2.426-2.429c-0.688-0.364-1.779-1.133-1.779-1.133
		s1.775-1.699,2.1-2.912c0.326-1.213,0.366-1.861,0.244-2.669C3.456,7.313,2.915,5.892,2.269,4.436
		C1.699,3.164,0.402,1.442,0.405,1.037c0.002-0.406,0.973-0.973,2.104,0c1.133,0.97,2.266,2.266,3.397,3.398
		C7.04,5.57,9.906,8.223,10.681,8.723c0.809,0.525,2.587,0.973,3.034,1.133c0.445,0.161,1.98,0.282,1.98,0.282
		s-0.401,0.934-0.321,2.39c0.079,1.456-0.021,2.608,1.193,3.741c1.212,1.13,3.418,3.053,3.418,3.053s-0.442,2.536-0.217,4.239
		c0.36,2.726,3.532,4.58,3.532,4.58s-0.661,1.807-0.771,3.348c-0.107,1.553-0.017,1.881,0.204,3.609
		c0.083,0.659,0.729,2.597,1.197,3.493c0.501,0.965,1.311,2.171,1.311,2.171s0.037-6.957,0.061-7.687
		c0.063-1.981,1.059-6.853,1.316-8.457c0.254-1.595,0.282-2.703,0.289-3.603c0.007-0.826-1.222-3.476-1.222-3.476
		s2.549,0.245,4.086-1.536c1.538-1.78,2.185-3.236,2.022-4.366c-0.159-1.133-0.484-3.4-0.484-3.4s2.668,0.485,3.802,0.162
		c1.133-0.323,2.114-1.657,2.348-2.589c0.217-0.862,0-4.773,0-4.773s1.174,1.091,1.98,1.577c0.809,0.486,2.418,1.296,3.307,1.213
		c0.89-0.08,2.802-1.091,3.287-1.414c0.485-0.324,1.325-1.102,1.779-1.255c0.456-0.15,1.054-0.121,1.054-0.121
		s-0.202,1.427-0.688,2.396c-0.485,0.973-1.364,2.852-1.415,3.673c-0.059,0.902,0,2.101,0.483,2.83
		c0.284,0.428,0.962,1.597,1.389,2.051c0.338,0.365-0.062,0.669-0.062,0.669s-0.122-0.061-1.327,0.031
		c-1.172,0.09-2.193,0.423-2.83,1.456c-0.578,0.937-0.577,2.608-0.485,3.479c0.007,0.052,0.161-0.082-1.699,0.406
		c-1.86,0.483-3.396,1.779-4.287,3.072c-0.674,0.98-1.712,2.46-2.036,3.321c-0.259,0.692-0.312,2.586-0.312,2.586
		s-1.615,0.241-3.071,1.779c-1.459,1.539-3.274,3.867-3.642,4.694c-0.326,0.734-0.362,0.877-0.756,2.098
		c-0.023,0.068-0.396-0.109-0.396-0.109s0.716-5.659,3.255-9.755c1.416-2.287,4.209-6.88,6.473-9.631
		c2.264-2.75,3.396-4.206,4.206-5.419s2.347-4.222,2.347-4.222s-2.355,2.532-3.57,3.908c-1.214,1.376-3.628,3.549-5.168,5.411
		c-1.537,1.859-3.072,3.72-4.124,5.581c-1.053,1.862-2.253,4.806-2.996,6.634c-0.361,0.893-1.251,3.034-1.396,4.614
		c-0.204,2.258-0.223,3.901-0.06,6.247c0.162,2.346,0.403,4.915,0.403,4.915s0.666-3.981,2.752-7.283
		c1.019-1.606,2.348-3.719,3.48-4.932c1.131-1.213,3.645-4.523,4.447-5.261c0.461-0.423,1.105,0.282,1.214,0.486
		c0.106,0.204,0.126,0.338-0.242,0.81c-0.367,0.469-0.776,0.44-1.78,1.539c-1.385,1.514-3.43,3.559-4.207,4.771
		c-0.703,1.099-2.847,4.419-3.723,7.604c-0.411,1.502-0.322,3.318-0.322,3.318s2.587,0.163,5.176-0.646
		c2.592-0.81,5.988-2.912,7.688-4.611c1.699-1.699,2.912-4.288,3.56-5.581c0.646-1.296,1.537-4.534,1.537-4.534
		s-2.829,3.562-4.609,5.744c-1.781,2.186-4.589,4.614-5.666,5.421c-2.183,1.639-5.257,2.589-5.986,2.672
		c-0.728,0.08,0.809-0.729,1.779-2.188c0.971-1.456,1.296-2.26,1.296-2.989s-0.082-2.351-0.082-2.351s2.913-0.968,4.046-1.938
		c1.133-0.973,1.377-1.213,1.699-2.186s0.485-2.429,0.485-2.429s1.628,0.69,3.721,0.083c1.512-0.44,2.265-1.765,2.913-2.752
		c0.996-1.519,2.079-4.074,2.079-4.074s0.286-0.24,0.43,0.253c0.258,0.88,0.529,2.604,0.422,4.004
		c-0.161,2.183-0.871,4.77-1.211,6.188c-0.364,1.518-0.265,2.122,0.06,3.338c0.325,1.213,1.537,4.451,1.537,4.451
		s-2.55,1.086-3.965,2.669c-1.88,2.103-2.426,5.501-2.426,5.501s-2.509-2.426-3.641-2.266c-1.134,0.163-3.156,1.859-3.156,1.859
		s-2.831-1.05-4.044-1.536s-3.561-0.727-3.561-0.727s0.241,0.24,0.566,1.05c0.324,0.812,0.811,2.269,0.811,2.269H27.022z"/>
	<path fill="#C4B6A5" d="M22.634,24.275c0,0,0.363-1.818-0.466-4.308c-0.801-2.408-2.185-5.097-2.832-6.228
		c-0.646-1.133-1.131-2.022-2.021-3.318c-0.89-1.293-1.488-2.256-1.619-2.832c-0.131-0.575,0.243-0.646,0.566-0.729
		c0.325-0.08,1.053,0.162,1.781,1.538c0.728,1.374,1.941,3.396,2.346,4.286c0.403,0.892,2.599,5.341,2.599,5.341
		s0.03-1.962,0.193-3.821c0.16-1.862-0.203-5.562-0.203-5.562s0.036-0.382,0.435-0.405c0.616-0.039,0.859,0.729,0.859,0.729
		s0.196,1.413,0.241,2.246c0.029,0.566,0.002,2.414,0.002,2.414s2.083-3.447,2.489-4.094c0.403-0.648,2.062-2.426,2.062-2.426
		l0.972,0.664c0,0-0.021,0.062-0.829,0.872c-0.81,0.81-1.51,1.879-2.055,2.832c-0.521,0.909-1.052,1.896-1.572,2.997
		c-0.484,1.023-0.742,1.614-1.066,2.907c-0.325,1.296-0.668,2.145-0.668,3.194c0,1.056,0.183,2.55,0.183,2.55v1.495L22.634,24.275z"
		/>
</g>
</svg>
